<?xml version="1.0" encoding="UTF-8" standalone="no"?>
<svg
   height="48"
   width="48"
   version="1.1"
   id="svg4"
   sodipodi:docname="change_circle.svg"
   inkscape:version="1.1.2 (b8e25be8, 2022-02-05)"
   xmlns:inkscape="http://www.inkscape.org/namespaces/inkscape"
   xmlns:sodipodi="http://sodipodi.sourceforge.net/DTD/sodipodi-0.dtd"
   xmlns="http://www.w3.org/2000/svg"
   xmlns:svg="http://www.w3.org/2000/svg">
  <defs
     id="defs8" />
  <sodipodi:namedview
     id="namedview6"
     pagecolor="#505050"
     bordercolor="#eeeeee"
     borderopacity="1"
     inkscape:pageshadow="0"
     inkscape:pageopacity="0"
     inkscape:pagecheckerboard="0"
     showgrid="false"
     inkscape:zoom="17.645833"
     inkscape:cx="12.864227"
     inkscape:cy="24"
     inkscape:window-width="1859"
     inkscape:window-height="1027"
     inkscape:window-x="61"
     inkscape:window-y="25"
     inkscape:window-maximized="1"
     inkscape:current-layer="svg4" />
  <path
     d="m24.1 38 5.7-5.65-5.7-5.65-2.1 2.1 2.15 2.15q-1.4.05-2.725-.45-1.325-.5-2.375-1.55-1-1-1.525-2.3-.525-1.3-.525-2.6 0-.85.225-1.7t.625-1.65l-2.2-2.2q-.85 1.25-1.25 2.65T14 24q0 1.9.75 3.75t2.2 3.3q1.45 1.45 3.25 2.175 1.8.725 3.7.775L22 35.9Zm8.25-8.5q.85-1.25 1.25-2.65T34 24q0-1.9-.725-3.775T31.1 16.9q-1.45-1.45-3.275-2.15t-3.725-.7L26 12.1 23.9 10l-5.7 5.65 5.7 5.65 2.1-2.1-2.2-2.2q1.35 0 2.75.525t2.4 1.525q1 1 1.525 2.3.525 1.3.525 2.6 0 .85-.225 1.7t-.625 1.65ZM24 44q-4.1 0-7.75-1.575-3.65-1.575-6.375-4.3-2.725-2.725-4.3-6.375Q4 28.1 4 24q0-4.15 1.575-7.8 1.575-3.65 4.3-6.35 2.725-2.7 6.375-4.275Q19.9 4 24 4q4.15 0 7.8 1.575 3.65 1.575 6.35 4.275 2.7 2.7 4.275 6.35Q44 19.85 44 24q0 4.1-1.575 7.75-1.575 3.65-4.275 6.375t-6.35 4.3Q28.15 44 24 44Zm0-3q7.1 0 12.05-4.975Q41 31.05 41 24q0-7.1-4.95-12.05Q31.1 7 24 7q-7.05 0-12.025 4.95Q7 16.9 7 24q0 7.05 4.975 12.025Q16.95 41 24 41Zm0-17Z"
     id="path2"
     style="fill:#3d82b3;fill-opacity:1" />
</svg>
